<svg xmlns="http://www.w3.org/2000/svg" viewBox="0 0 84.5 84.5"><defs><style>.cls-1{fill:#82d1d1;}.cls-2{fill:none;}.cls-10,.cls-2,.cls-4,.cls-5,.cls-6,.cls-7,.cls-8,.cls-9{stroke:#000;stroke-width:2.5px;}.cls-10,.cls-2,.cls-4,.cls-5,.cls-6,.cls-7,.cls-8{stroke-linecap:round;}.cls-10,.cls-2,.cls-5,.cls-6,.cls-7,.cls-8{stroke-linejoin:round;}.cls-3,.cls-4{fill:#b2b6bb;}.cls-4,.cls-9{stroke-miterlimit:10;}.cls-5{fill:#fff;}.cls-6{fill:#ff9017;}.cls-7{fill:#ff3a1a;}.cls-8{fill:#fbd699;}.cls-10,.cls-9{fill:#fd9226;}</style></defs><g id="Layer_2" data-name="Layer 2"><g id="Layer_1-2" data-name="Layer 1"><circle class="cls-1" cx="42.25" cy="42.25" r="41"/><path class="cls-2" d="M17.71,9.4a41,41,0,1,1-8.22,8.19"/><circle class="cls-3" cx="42.25" cy="42.25" r="33.96"/><path class="cls-4" d="M69.76,22.33A33.84,33.84,0,1,1,51.71,9.62"/><path class="cls-5" d="M63.49,21.51a16.83,16.83,0,1,1-8.41-7.73,5.87,5.87,0,1,1,8.41,7.73Z"/><circle class="cls-6" cx="49.07" cy="29.05" r="8.1"/><circle class="cls-7" cx="21.88" cy="27.15" r="4.82"/><circle class="cls-7" cx="16.95" cy="37.75" r="4.82"/><circle class="cls-7" cx="27.21" cy="42.04" r="4.82"/><polygon class="cls-8" points="37.17 73.85 13.01 49.3 37.36 49.5 37.17 73.85"/><path class="cls-9" d="M48.5,67.89h0a4.78,4.78,0,0,1-.61-6.73,53.07,53.07,0,0,0,14.22-17,4.78,4.78,0,0,1,6.73-.6h0a4.78,4.78,0,0,1,.6,6.73,64.57,64.57,0,0,1-14.22,17A4.76,4.76,0,0,1,48.5,67.89Z"/><polygon class="cls-10" points="69.22 43.33 69.8 39.56 70.37 35.8 73.35 38.18 76.32 40.56 72.77 41.95 69.22 43.33"/><polygon class="cls-10" points="45.76 74.69 43.16 71.9 40.56 69.12 44.27 68.26 47.98 67.39 46.87 71.04 45.76 74.69"/></g></g></svg>