<?xml version="1.0" encoding="utf-8"?>
<svg xmlns="http://www.w3.org/2000/svg" width="480" height="480" viewBox="0 0 512 512">
  <path fill="#BCBCBC" d="M272.5,205c-0.4-0.7-0.6-1.5-0.6-2.3v-4.4c-1.4-0.4-2.7-1.3-3.5-2.8c-0.1-0.1-0.3-0.1-0.5-0.2c-0.9-0.4-1.8-0.7-2.7-0.9c-2.4-0.6-4.8-1.1-7.3-1.4c-4.1-0.6-8.3-1.2-12.4-1.3c-16.6-0.4-32.9,0.5-49.1,4.7c-0.4,0.1-0.7,0.2-1.1,0.2c-0.9,4.8,0,10,0.5,14.6c0.6,5,1.5,9.9,1.9,14.9c23.4,0.4,46.7,2.6,70.1,2.9c0.2-1.1,0.4-2.3,0.5-3.5c0.2-1.3,0.4-2.7,0.4-4c0-0.6-0.1-1-0.1-1.2c-1.3-2-0.8-4.3,0.5-6.1C266.7,211.5,268.3,206,272.5,205z" />
  <path fill="#BCBCBC" d="M343.8,408c-4.5-7.3-13.9-6.4-21.4-5.6c-29.5,3.1-58.8,4.7-88.5,4.4c-16.5-0.2-32.9-0.9-49.4-1c-16.1-0.1-32.2,1-48.3,0.4c-9.4-0.3-21.4-0.9-27.4-9.3c-6.8-9.4-3.1-22.6-2.5-33.2c1.9-32.9,1.5-65.9,2.2-98.8c0.7-31.4,0.6-62.9-0.2-94.3c-0.1-0.3-0.1-0.7-0.1-1.1v-3c0-2.2,1-3.7,2.4-4.7c-3.5-3.1-6.4-6.7-8.5-11.1c-3.4-7.1-5.3-14.9-6.3-22.7c-2-15-5.9-30-5.8-45.2c-5.1,0-10.1-0.1-15.2-0.1c-0.1,56.2-1.4,112.4-0.9,168.7c0.3,31.9,1.2,63.8,1.7,95.7c0.2,15.5,0,31.1,0.5,46.6c0.5,14.6,1.4,29.3,0.7,43.9c0,0.8-0.2,1.5-0.5,2.2c1.5,0.4,2.9,0.7,4.4,1c3.6,0.7,7.3,1.5,10.9,1.8c11.8,1,26.3,2.7,39.1,3.9c30.3,2.9,60.4,3.3,90.8,3.3c15,0,30.1-0.1,45.1-0.8c11.9-0.6,24-2.5,35.8-2.5c7.9,0,15.9,0.5,23.8,0.4c3.8-0.1,7.7-0.1,11.4-0.7c1.4-0.2,2.8-0.4,4.1-0.9c0.7-0.3,1.1-0.7,0.4,0.4c0.8-1.2,1.8-1.9,2.9-2.3c0.7-5.1,1.3-10.2,1.4-15.4C346.6,421.7,347.1,413.4,343.8,408z" />
  <path fill="#D6E5E5" d="M318.8,339.1c-8.1-16.2-32.8-7.5-42.3,2.4c-3.1,3.2-9.7,1.9-9.7-3.2v-13.9c-5.2,2.2-10.5,3.9-16.2,4.9c-8.9,1.6-17.7,1.3-26.7,0.6c-9.8-0.7-19.7-1.5-29.4-3.3c-6.8-1.3-13.9-3.7-20.9-3.7c-5.9,0.1-9.6,2.3-10.8,8.4c-1.7,8.9-0.7,18.3,1.1,27.1c1.4,7,3.6,14,6.2,20.7c1.5,3.9,3.5,11.6,7.7,13.4c1.3,0.6,2.2,1.4,2.7,2.4c5.5,0,11.1,0,16.7,0.2c16.6,0.4,33.2,0.8,49.7,0.7c8.3,0,16.6-0.2,24.9-0.5c-0.4-1.5,0-3.1,1.5-4.6c4.1-3.8,3.5-11,5.3-16c0.8-2.4,3.8-3.3,6-3C301.7,374.1,329,359.4,318.8,339.1z" />
  <path fill="#BCBCBC" d="M262.4 306.7c-6.8-1.8-14.5-.9-21.4-.4-.5 0-1 .1-1.4.1v4.6c0 3-1.9 5.7-5.1 6-2.8.2-6-2.1-6-5.1v-4.6c-5.7.5-11.4 1-17.1 1.4-9.1.7-18.3 1.4-27.3 3.2-.9.2-1.8.4-2.7.6 9.4 1.6 18.6 3.9 28 4.9 10.7 1.2 21.8 2.6 32.6 1.7 8.5-.7 16.5-3 24.2-6.7C265.6 309.9 264.6 307.3 262.4 306.7zM393.9 83.8c-12 2.5-24.2 2.1-36.5 1.4-13-.7-25.8-.6-38.9-.3-27.6.7-55.2.7-82.9.3-45-.6-89.9-2-134.9-2.5-.1 7.4 1.2 14.9 2.5 22.1 1.4 7.9 2.4 15.8 3.7 23.7 1.1 6.8 2.7 15.7 7.2 21.2 4.2 5 9.6 8.6 15.7 10.9 24.8 9.2 54.9 2.4 77.4 18.4 1.4 1 2.1 2.3 2.1 3.5 13-2 26.3-2.6 39.5-1.6 4.2.3 11.4.5 17.7 2-2.2-29.8 46.6-29.5 66.2-31.2 16.8-1.5 36.7-3.9 48.8-17 6.5-7 9.3-15.6 11.3-24.8C394.7 101.9 396.9 91.7 393.9 83.8z" />
  <path fill="#C56528" d="M442.6,191.9c-2.8-7.3-19.1-7.8-25.4-7.9c-15.6-0.1-30.6,3.6-45.6,7.4c-15,3.8-29.7,6.6-45.1,8.1c-14,1.3-28,2.6-41.6,6.3c0.3,0,0.6,0.1,0.9,0.1c31.6,3,63.4,7.3,95.2,6.2c14.3-0.5,30.3-1.3,43.7-6.7C428.8,203.8,445.3,198.9,442.6,191.9z" />
  <path fill="#010101" d="M451.7,185.2c-4.3-8.3-16.5-10.3-24.7-11.4c-30.3-4.1-58.5,9.6-88,13.3c-18.7,2.4-37.6,3.1-55.9,7.8v-1.1c0-3.6-2.8-5.2-5.6-4.9c-0.2-0.3-0.5-0.7-0.8-1c1-1,1.5-2.4,1.3-4.2c-1.7-13.1,16.2-16.3,25.8-18c14.3-2.4,28.9-2.4,43.2-4.4c18.6-2.6,38.2-9.9,48.7-26.5c5-8,7.4-17.6,9.2-26.7c1.7-9,3.2-20.3-0.7-29c-0.9-2.1-2.7-3.1-4.5-3.4c-1-1.9-2.8-3.4-5.2-3.4h-3c-1.5,0-2.7,0.5-3.5,1.3c-10.2,1.6-20.9,0.9-31.1,0.4c-13-0.7-25.8-0.6-38.9-0.3c-27.6,0.7-55.2,0.7-82.9,0.3c-54.1-0.7-108.1-2.7-162.2-2.7c-3.2-2.1-9.1-0.2-9.1,5c0,57.9-1.4,115.8-0.9,173.7c0.2,31.9,1.2,63.8,1.7,95.7c0.2,15.6,0,31.2,0.5,46.7c0.5,15.3,1.5,30.5,0.8,45.8c0,0.2,0,0.5,0,0.7c-0.9,0.7-1.5,1.6-1.9,2.9c-2.5,8,13.6,9.4,18.1,10.3c11.5,2.2,23.4,2.8,35.1,3.9c16.1,1.6,32.2,3.1,48.3,4c16.4,0.9,32.9,0.6,49.3,0.6c16.4,0.1,32.7,0,49.1-0.6c13.2-0.5,26.6-2.6,39.8-2.7c8.7,0,17.3,0.6,26,0.4c4.9-0.1,10.4-0.2,15.2-1.9c2.5,3.6,9.3,3.7,10.1-1.8c3.2-20.8,10.2-59.6-19.8-63c-12.6-1.4-25.9,1.8-38.4,2.8c-4.1,0.3-8.1,0.6-12.2,0.8c2-3.6,2.4-7.6,3.3-11.7c24.8,0.3,53.7-20.6,41.8-47.6c-9.1-20.6-34.2-19-51.4-8.9v-9.4c0.1-0.6,0.1-1.3,0-2c0-0.7-0.1-1.3-0.3-1.8c-1-5.1-2.4-9.9-6.2-13.8c-4.4-4.5-11.9-4.6-17.7-4.7c-14.2-0.1-28.3,1.8-42.4,2.8c-11.2,0.8-22.5,1.9-33.4,4.4c-7.8,1.8-18.3,5.5-19.2,14.5c-12.2,10.6-7.8,34-4.8,47.5c1.7,7.6,4.2,15.1,7.1,22.3c1.1,2.7,2.4,5.9,4.1,8.7c-5.5,0.1-10.9,0.2-16.4,0.2c-7,0.1-14.1,0.2-21.1-0.7c-3.7-0.5-7.9-1.4-10.2-4.5c-2.5-3.4-1.5-8.7-1.1-12.6c0.7-8.2,1.2-16.5,1.5-24.8c1.3-30.8,1.2-61.7,1.8-92.6c0.6-30.7,0.5-61.4-0.3-92.1c11.1,6.3,24.7,7.5,37.1,8.8c6.9,0.7,13.8,1.7,20.6,3.1c6.6,1.3,13.3,2.3,19.3,5.3c-0.7,0.2-1.4,0.3-2,0.5c-2.5-1.6-6.1-1.4-7.7,2.1c-6.3,13.9,0.2,29.9,0.4,44.4c0.1,3.2,3.1,5.1,6,5.1c26.7,0.1,53.2,3,79.9,3c2.5,0,4.5-2.2,5-4.5c1.2-4.9,3.6-13.6,1.4-19.2c29.1,2.9,58.3,6.2,87.5,6.8c25.4,0.5,54.1-0.8,76.5-14.2C452,203.9,456.5,194.7,451.7,185.2z M184,311.9c9-1.8,18.2-2.5,27.3-3.2c5.7-0.4,11.4-0.9,17.1-1.4v4.6c0,3,3.1,5.3,6,5.1c3.2-0.2,5.1-2.9,5.1-6v-4.6c0.5,0,1-0.1,1.4-0.1c6.9-0.4,14.6-1.4,21.4,0.4c2.3,0.6,3.3,3.2,3.8,5.7c-7.7,3.6-15.7,5.9-24.2,6.7c-10.8,0.9-21.9-0.5-32.6-1.7c-9.5-1-18.7-3.3-28-4.9C182.2,312.3,183.1,312.1,184,311.9z M163.9,358.3c-1.8-8.8-2.8-18.2-1.1-27.1c1.2-6.2,4.9-8.4,10.8-8.4c7-0.1,14.1,2.4,20.9,3.7c9.7,1.8,19.6,2.6,29.4,3.3c9,0.7,17.8,0.9,26.7-0.6c5.6-1,11-2.7,16.2-4.9v13.9c0,5.1,6.6,6.4,9.7,3.2c9.5-9.8,34.2-18.5,42.3-2.4c10.2,20.4-17.1,35-34.3,32.7c-2.2-0.3-5.2,0.6-6,3c-1.8,5-1.2,12.2-5.3,16c-1.6,1.4-1.9,3.1-1.5,4.6c-8.3,0.3-16.6,0.4-24.9,0.5c-16.6,0.1-33.2-0.3-49.7-0.7c-5.6-0.1-11.1-0.2-16.7-0.2c-0.5-1-1.3-1.8-2.7-2.4c-4.2-1.8-6.2-9.5-7.7-13.4C167.6,372.3,165.4,365.4,163.9,358.3z M136.1,406.1c16.1,0.6,32.2-0.5,48.3-0.4c16.5,0.1,32.9,0.9,49.4,1c29.7,0.3,59-1.3,88.5-4.4c7.5-0.8,16.9-1.7,21.4,5.6c3.3,5.4,2.8,13.7,2.7,19.8c-0.1,5.1-0.7,10.3-1.4,15.4c-1.1,0.4-2.1,1.1-2.9,2.3c0.7-1.1,0.3-0.6-0.4-0.4c-1.3,0.5-2.7,0.7-4.1,0.9c-3.8,0.5-7.6,0.6-11.4,0.7c-7.9,0.1-15.9-0.4-23.8-0.4c-11.9,0-23.9,1.9-35.8,2.5c-15,0.7-30.1,0.8-45.1,0.8c-30.4,0-60.5-0.5-90.8-3.3c-12.8-1.2-27.3-2.9-39.1-3.9c-3.7-0.3-7.3-1.1-10.9-1.8c-1.5-0.3-3-0.6-4.4-1c0.3-0.6,0.5-1.4,0.5-2.2c0.7-14.6-0.2-29.3-0.7-43.9c-0.6-15.5-0.3-31.1-0.5-46.6c-0.4-31.9-1.4-63.8-1.7-95.7c-0.5-56.2,0.8-112.4,0.9-168.7c5.1,0,10.1,0,15.2,0.1c-0.1,15.2,3.8,30.2,5.8,45.2c1.1,7.8,2.9,15.6,6.3,22.7c2.1,4.4,5,8,8.5,11.1c-1.4,1-2.4,2.6-2.4,4.7v3c0,0.4,0,0.7,0.1,1.1c0.8,31.4,0.9,62.9,0.2,94.3c-0.7,32.9-0.3,66-2.2,98.8c-0.6,10.6-4.3,23.8,2.5,33.2C114.7,405.3,126.7,405.8,136.1,406.1z M269.1,214.2c-1.3,1.7-1.7,4-0.5,6.1c0,0.2,0.1,0.6,0.1,1.2c0,1.3-0.2,2.7-0.4,4c-0.1,1.2-0.3,2.3-0.5,3.5c-23.4-0.3-46.7-2.5-70.1-2.9c-0.4-5-1.3-9.9-1.9-14.9c-0.6-4.6-1.4-9.9-0.5-14.6c0.4,0,0.7-0.1,1.1-0.2c16.2-4.2,32.5-5.2,49.1-4.7c4.2,0.1,8.3,0.7,12.4,1.3c2.5,0.4,4.9,0.8,7.3,1.4c0.9,0.2,1.8,0.5,2.7,0.9c0.2,0.1,0.3,0.1,0.5,0.2c0.7,1.5,2,2.4,3.5,2.8v4.4c0,0.9,0.2,1.6,0.6,2.3C268.3,206,266.7,211.5,269.1,214.2z M266.7,182.8c-6.3-1.6-13.6-1.7-17.7-2c-13.2-0.9-26.5-0.4-39.5,1.6c-0.1-1.3-0.7-2.5-2.1-3.5c-22.5-16-52.6-9.2-77.4-18.4c-6.1-2.3-11.6-5.9-15.7-10.9c-4.6-5.5-6.1-14.3-7.2-21.2c-1.3-7.9-2.3-15.8-3.7-23.7c-1.3-7.2-2.6-14.7-2.5-22.1c45,0.5,89.9,2,134.9,2.5c27.6,0.4,55.2,0.4,82.9-0.3c13-0.3,25.8-0.5,38.9,0.3c12.2,0.7,24.4,1.1,36.5-1.4c3,7.9,0.9,18.1-0.9,26c-2,9.2-4.8,17.8-11.3,24.8c-12.2,13.1-32,15.6-48.8,17C313.3,153.3,264.5,153,266.7,182.8z M424.7,205.5c-13.5,5.4-29.4,6.2-43.7,6.7c-31.8,1.1-63.6-3.2-95.2-6.2c-0.3,0-0.6-0.1-0.9-0.1c13.6-3.7,27.6-4.9,41.6-6.3c15.4-1.5,30.2-4.3,45.1-8.1c15-3.8,30-7.6,45.6-7.4c6.4,0.1,22.6,0.5,25.4,7.9C445.3,198.9,428.8,203.8,424.7,205.5z" />
</svg>