<svg xmlns="http://www.w3.org/2000/svg" viewBox="0 0 82.06 80.62"><defs><style>.cls-1{fill:#aab2bd;}.cls-1,.cls-10,.cls-11,.cls-3,.cls-4,.cls-6,.cls-7,.cls-8,.cls-9{stroke:#000;stroke-width:2.5px;}.cls-1,.cls-11,.cls-3,.cls-4,.cls-6,.cls-7,.cls-8{stroke-linecap:round;}.cls-1,.cls-11,.cls-3,.cls-6,.cls-7,.cls-8,.cls-9{stroke-linejoin:round;}.cls-2{fill:#e6e9ed;}.cls-3,.cls-4{fill:none;}.cls-10,.cls-4{stroke-miterlimit:10;}.cls-5,.cls-6{fill:#ffeaa7;}.cls-7{fill:#fcd770;}.cls-8{fill:#b4dd7f;}.cls-9{fill:#ecc19c;}.cls-10,.cls-11{fill:#ff826e;}</style></defs><g id="Layer_2" data-name="Layer 2"><g id="Layer_1-2" data-name="Layer 1"><rect class="cls-1" x="1.25" y="19.6" width="42.76" height="5.78" rx="1.9"/><path class="cls-2" d="M35.05,67.32H10.52a4.23,4.23,0,0,1-4.22-4l-2.24-38H41.28l-2,37.93A4.23,4.23,0,0,1,35.05,67.32Z"/><path class="cls-3" d="M30,67.32H10.52a4.23,4.23,0,0,1-4.22-4l-2.24-38H41.28"/><line class="cls-4" x1="10" y1="35.12" x2="11.98" y2="60.88"/><line class="cls-4" x1="9.66" y1="29.91" x2="9.73" y2="30.76"/><path class="cls-5" d="M65.49,48.92H76.65L74.53,64.66a4.43,4.43,0,0,1-4.4,3.85H33.29a4.45,4.45,0,0,1-4.4-3.82L26.66,48.92H56.4"/><path class="cls-6" d="M57.33,68.51h-24a4.45,4.45,0,0,1-4.4-3.82L26.66,48.92"/><line class="cls-6" x1="63.98" y1="68.51" x2="57.33" y2="68.51"/><path class="cls-6" d="M76.65,48.92,74.53,64.66a4.43,4.43,0,0,1-4.4,3.85H64"/><path class="cls-7" d="M53.57,73.92h1.62A2.76,2.76,0,0,0,58,71.16V51.55a2.62,2.62,0,0,0-2.62-2.63H24.11V42.4H79.2v6.52H66.45a2.62,2.62,0,0,0-2.62,2.63V71.16a2.76,2.76,0,0,0,2.76,2.76H78a2.78,2.78,0,0,1,2.8,2.71,2.73,2.73,0,0,1-2.73,2.74H24.3a2.77,2.77,0,0,1-2.79-2.71,2.73,2.73,0,0,1,2.72-2.74h23.5"/><path class="cls-8" d="M38.17,15.82A3.77,3.77,0,0,1,34.4,19.6H11a3.78,3.78,0,0,1-3.78-3.78A3.79,3.79,0,0,1,11,12h5.56a3.19,3.19,0,1,1,0-6.37C23,5.74,26.91,2,26.68,1.25c0,0,5.09,3.4,5.23,7.61A3.16,3.16,0,0,1,31,11.11a3.2,3.2,0,0,1-2.25.93H34.4A3.77,3.77,0,0,1,38.17,15.82Z"/><path class="cls-9" d="M58.2,42.4H26.66V36.11a4,4,0,0,1,3.95-4h5.47V30.08A2.08,2.08,0,0,1,38.17,28h1.2a9.85,9.85,0,0,1,4.14.89,22.24,22.24,0,0,1,5,3.25,9.73,9.73,0,0,1,9.73,9.73Z"/><circle class="cls-10" cx="52.47" cy="27.42" r="3.71"/><circle class="cls-10" cx="59.72" cy="32.74" r="3.71"/><path class="cls-8" d="M58.77,41.69,68.52,26a18.42,18.42,0,0,1,6.31,6.75,18.67,18.67,0,0,1,2.3,9Z"/><path class="cls-11" d="M58.77,41.69l7.14-11.52a13.49,13.49,0,0,1,4.62,4.93,13.8,13.8,0,0,1,1.68,6.59Z"/></g></g></svg>