<svg xmlns="http://www.w3.org/2000/svg" viewBox="0 0 54.98 84.69"><defs><style>.cls-1{fill:#93eaf6;}.cls-1,.cls-2,.cls-3,.cls-5,.cls-6,.cls-7,.cls-8{stroke:#000;stroke-width:2.51px;}.cls-1,.cls-2,.cls-3,.cls-5,.cls-6,.cls-8{stroke-linecap:round;}.cls-1,.cls-2,.cls-3,.cls-5,.cls-6{stroke-linejoin:round;}.cls-2{fill:#ff8859;}.cls-3{fill:#d04e42;}.cls-4{fill:#f9eed7;}.cls-5{fill:#fda162;}.cls-6{fill:none;}.cls-7{fill:#e30613;}.cls-7,.cls-8{stroke-miterlimit:10;}.cls-8{fill:#ff5f5f;}</style></defs><g id="Layer_2" data-name="Layer 2"><g id="Layer_1-2" data-name="Layer 1"><path class="cls-1" d="M5.39,45.31,4.74,39.7H50.49L45.31,81.56a2.14,2.14,0,0,1-2.12,1.88H11.72A2.13,2.13,0,0,1,9.6,81.55L6.4,54"/><path class="cls-2" d="M42.6,39.7,41.38,52.65l-2.07,22a1.79,1.79,0,0,1-1.78,1.62h-20a1.79,1.79,0,0,1-1.78-1.61l-2.14-22L12.33,39.7Z"/><polyline class="cls-3" points="13.42 50.92 12.33 39.7 42.6 39.7 41.38 50.92 20.19 50.92"/><path class="cls-4" d="M48.42,24.32v2.82H6.29V24.32A7.33,7.33,0,0,1,13.62,17h2.8s-.7-8.73,7-11.48c0,.06,5.28,10.29,15.3,11.48h2.36A7.33,7.33,0,0,1,48.42,24.32Z"/><path class="cls-5" d="M43.79,27.14h3.66a6.28,6.28,0,0,1,6.28,6.28h0a6.29,6.29,0,0,1-6.28,6.28H7.54a6.28,6.28,0,0,1-6.28-6.28h0a6.28,6.28,0,0,1,6.28-6.28H25.9"/><line class="cls-5" x1="34.42" y1="27.14" x2="37.97" y2="27.14"/><path class="cls-6" d="M6.29,27.14V24.32A7.33,7.33,0,0,1,13.62,17h2.8s-.7-8.73,7-11.48c0,.06,5.28,10.29,15.3,11.48h2.36a7.33,7.33,0,0,1,7.33,7.33v2.82"/><circle class="cls-7" cx="35.75" cy="11.75" r="4.57"/><path class="cls-8" d="M36.19,6.32s-.48-3.66,2.75-5.06"/></g></g></svg>