<svg xmlns="http://www.w3.org/2000/svg" viewBox="0 0 56.78 84.82"><defs><style>.cls-1,.cls-4{fill:#d8d7da;}.cls-2,.cls-9{fill:#ff9017;}.cls-3{fill:none;}.cls-3,.cls-4,.cls-5,.cls-7,.cls-9{stroke:#000;stroke-width:2.38px;}.cls-3,.cls-7,.cls-9{stroke-linecap:round;stroke-linejoin:round;}.cls-4,.cls-5{stroke-miterlimit:10;}.cls-5{fill:#ff7043;}.cls-6,.cls-7{fill:#00e5ff;}.cls-8{fill:#fdd844;}</style></defs><g id="Layer_2" data-name="Layer 2"><g id="Layer_1-2" data-name="Layer 1"><rect class="cls-1" x="10.35" y="25.17" width="31.35" height="58.26"/><rect class="cls-2" x="10.35" y="34.85" width="31.35" height="48.39"/><polyline class="cls-3" points="41.71 79.37 41.71 83.63 10.35 83.63 10.35 25.37 41.71 25.37 41.71 71.03"/><path class="cls-4" d="M26.42,45.55a3,3,0,0,1-.63.66l-.7.56-4.45,3.56a3.34,3.34,0,0,1-4.42-.21,2.8,2.8,0,0,1-.28-.31l-4.12-5.15a3.34,3.34,0,0,1,.52-4.7l5.15-4.12a3.12,3.12,0,0,1,.86-.5,3.35,3.35,0,0,1,3.85,1l1.47,1.84,2,2.47.67.84A3.35,3.35,0,0,1,26.42,45.55Z"/><path class="cls-4" d="M37.31,60.1a3.38,3.38,0,0,1-.64.67l-.69.56-4.45,3.56a3.34,3.34,0,0,1-4.42-.21c-.1-.1-.2-.2-.29-.31l-3.15-3.94a3.36,3.36,0,0,0,3.53-2l2.5-6.11a3.54,3.54,0,0,0,.23-.89,3.34,3.34,0,0,0-.23-1.63,3.34,3.34,0,0,1,3.38,1.17l3.45,4.31.67.84A3.33,3.33,0,0,1,37.31,60.1Z"/><path class="cls-4" d="M29.93,51.38a3.54,3.54,0,0,1-.23.89l-2.5,6.11a3.36,3.36,0,0,1-3.53,2,3.51,3.51,0,0,1-.83-.22L19.8,59l-3.06-1.25a3.35,3.35,0,0,1-1.84-4.37l1.32-3.22a3.34,3.34,0,0,0,4.42.21l4.45-3.56,1.79.73,1,.41a3.28,3.28,0,0,1,1.83,1.84A3.34,3.34,0,0,1,29.93,51.38Z"/><path class="cls-4" d="M39.73,46.26l-5.15,4.12a3.35,3.35,0,0,1-4.71-.52l-3.45-4.31a3.35,3.35,0,0,0-.11-4l-.67-.84a3.33,3.33,0,0,1,.64-.66l5.15-4.13a3.35,3.35,0,0,1,4.7.53l4.12,5.15A3.34,3.34,0,0,1,39.73,46.26Z"/><path class="cls-5" d="M23.67,60.43V83.1H18.35V59H19.8l3,1.25A3.51,3.51,0,0,0,23.67,60.43Z"/><polygon class="cls-6" points="23.67 12.18 23.67 12.22 23.6 12.18 23.67 12.18"/><path class="cls-7" d="M23.67,12.22v26L22.2,36.36a3.35,3.35,0,0,0-3.85-1V15.29L2.52,6.16a2.67,2.67,0,0,1-1-3.64h0a2.65,2.65,0,0,1,3.63-1L23.6,12.18Z"/><path class="cls-8" d="M41.84,25.22l-13.75,0A13.75,13.75,0,1,1,41.84,39Z"/><path class="cls-3" d="M48.09,37.45A13.61,13.61,0,0,1,41.84,39V25.22l-13.75,0a13.75,13.75,0,0,1,27.5,0,13.63,13.63,0,0,1-2.3,7.57"/><path class="cls-9" d="M41.84,25.22h-9.7a9.7,9.7,0,1,1,9.7,9.72Z"/><line class="cls-3" x1="36.18" y1="17.37" x2="41.84" y2="25.22"/><line class="cls-3" x1="41.84" y1="25.22" x2="49.82" y2="30.71"/><line class="cls-3" x1="42.32" y1="24.7" x2="48.04" y2="18.9"/><circle cx="36.52" cy="69.08" r="1.43"/><circle cx="28.93" cy="73.13" r="1.43"/><circle cx="14.12" cy="65.62" r="1.43"/><circle cx="35.32" cy="77.11" r="1.43"/><line class="cls-3" x1="11.09" y1="34.93" x2="36.18" y2="34.85"/></g></g></svg>